<svg xmlns="http://www.w3.org/2000/svg" xmlns:xlink="http://www.w3.org/1999/xlink" version="1.1" style="enable-background:new 0 0 448.138 448.138;" xml:space="preserve" width="448.138" height="448.138"><rect id="backgroundrect" width="100%" height="100%" x="0" y="0" fill="none" stroke="none"/>




















<g class="currentLayer" style=""><title>Layer 1</title><path d="M436.768,151.845c-13.152-26.976-35.744-42.08-57.6-56.704C362.88,84.229,347.52,73.925,336.64,59.173l-2.016-2.72  c-6.4-8.608-13.696-18.368-14.816-26.56c-1.12-8.288-7.648-14.048-16.928-13.792C294.496,16.677,288,23.653,288,32.069v285.12  c-13.408-8.128-29.92-13.12-48-13.12c-44.096,0-80,28.704-80,64s35.904,64,80,64c44.128,0,80-28.704,80-64V181.573  c24.032,9.184,63.36,32.576,74.176,87.2c-2.016,2.976-3.936,6.208-6.176,8.736c-5.856,6.624-5.184,16.736,1.44,22.56  c6.592,5.888,16.704,5.184,22.56-1.44c20.032-22.752,33.824-58.784,35.968-94.016C449.024,187.237,445.152,168.997,436.768,151.845z  " id="svg_1" class="selected" fill-opacity="1" fill="#ffffff"/><path d="M16,48.069h192c8.832,0,16-7.168,16-16s-7.168-16-16-16H16c-8.832,0-16,7.168-16,16S7.168,48.069,16,48.069z" id="svg_2" class="selected" fill-opacity="1" fill="#ffffff"/><path d="M16,144.069h192c8.832,0,16-7.168,16-16s-7.168-16-16-16H16c-8.832,0-16,7.168-16,16S7.168,144.069,16,144.069z" id="svg_3" class="selected" fill-opacity="1" fill="#ffffff"/><path d="M112,208.069H16c-8.832,0-16,7.168-16,16s7.168,16,16,16h96c8.832,0,16-7.168,16-16S120.832,208.069,112,208.069z" id="svg_4" class="selected" fill-opacity="1" fill="#ffffff"/><path d="M112,304.069H16c-8.832,0-16,7.168-16,16s7.168,16,16,16h96c8.832,0,16-7.168,16-16S120.832,304.069,112,304.069z" id="svg_5" class="selected" fill-opacity="1" fill="#ffffff"/><g id="svg_6" class="selected" fill-opacity="1" fill="#ffffff">
</g><g id="svg_7" class="selected" fill-opacity="1" fill="#ffffff">
</g><g id="svg_8" class="selected" fill-opacity="1" fill="#ffffff">
</g><g id="svg_9" class="selected" fill-opacity="1" fill="#ffffff">
</g><g id="svg_10" class="selected" fill-opacity="1" fill="#ffffff">
</g><g id="svg_11" class="selected" fill-opacity="1" fill="#ffffff">
</g><g id="svg_12" class="selected" fill-opacity="1" fill="#ffffff">
</g><g id="svg_13" class="selected" fill-opacity="1" fill="#ffffff">
</g><g id="svg_14" class="selected" fill-opacity="1" fill="#ffffff">
</g><g id="svg_15" class="selected" fill-opacity="1" fill="#ffffff">
</g><g id="svg_16" class="selected" fill-opacity="1" fill="#ffffff">
</g><g id="svg_17" class="selected" fill-opacity="1" fill="#ffffff">
</g><g id="svg_18" class="selected" fill-opacity="1" fill="#ffffff">
</g><g id="svg_19" class="selected" fill-opacity="1" fill="#ffffff">
</g><g id="svg_20" class="selected" fill-opacity="1" fill="#ffffff">
</g></g></svg>