<svg xmlns="http://www.w3.org/2000/svg" xmlns:xlink="http://www.w3.org/1999/xlink" version="1.1" style="enable-background:new 0 0 512 512;" xml:space="preserve" width="512" height="512"><rect id="backgroundrect" width="100%" height="100%" x="0" y="0" fill="none" stroke="none"/>

















<g class="currentLayer" style=""><title>Layer 1</title><g id="svg_1" class="selected" fill-opacity="1" fill="#1467c1">
	<g id="svg_2" fill="#1467c1">
		<path d="M53.333,224C23.936,224,0,247.936,0,277.333V448c0,29.397,23.936,53.333,53.333,53.333h64    c12.011,0,23.061-4.053,32-10.795V224H53.333z" id="svg_3" fill="#1467c1"/>
	</g>
</g><g id="svg_4" class="selected" fill-opacity="1" fill="#1467c1">
	<g id="svg_5" fill="#1467c1">
		<path d="M512,304c0-12.821-5.077-24.768-13.888-33.579c9.963-10.901,15.04-25.515,13.653-40.725    c-2.496-27.115-26.923-48.363-55.637-48.363H324.352c6.528-19.819,16.981-56.149,16.981-85.333c0-46.272-39.317-85.333-64-85.333    c-22.165,0-37.995,12.48-38.677,12.992c-2.517,2.027-3.989,5.099-3.989,8.341v72.341l-61.44,133.099l-2.56,1.301v228.651    C188.032,475.584,210.005,480,224,480h195.819c23.232,0,43.563-15.659,48.341-37.269c2.453-11.115,1.024-22.315-3.861-32.043    c15.765-7.936,26.368-24.171,26.368-42.688c0-7.552-1.728-14.784-5.013-21.333C501.419,338.731,512,322.496,512,304z" id="svg_6" fill="#1467c1"/>
	</g>
</g><g id="svg_7" class="selected" fill-opacity="1" fill="#1467c1">
</g><g id="svg_8" class="selected" fill-opacity="1" fill="#1467c1">
</g><g id="svg_9" class="selected" fill-opacity="1" fill="#1467c1">
</g><g id="svg_10" class="selected" fill-opacity="1" fill="#1467c1">
</g><g id="svg_11" class="selected" fill-opacity="1" fill="#1467c1">
</g><g id="svg_12" class="selected" fill-opacity="1" fill="#1467c1">
</g><g id="svg_13" class="selected" fill-opacity="1" fill="#1467c1">
</g><g id="svg_14" class="selected" fill-opacity="1" fill="#1467c1">
</g><g id="svg_15" class="selected" fill-opacity="1" fill="#1467c1">
</g><g id="svg_16" class="selected" fill-opacity="1" fill="#1467c1">
</g><g id="svg_17" class="selected" fill-opacity="1" fill="#1467c1">
</g><g id="svg_18" class="selected" fill-opacity="1" fill="#1467c1">
</g><g id="svg_19" class="selected" fill-opacity="1" fill="#1467c1">
</g><g id="svg_20" class="selected" fill-opacity="1" fill="#1467c1">
</g><g id="svg_21" class="selected" fill-opacity="1" fill="#1467c1">
</g></g></svg>