<svg xmlns="http://www.w3.org/2000/svg" xmlns:xlink="http://www.w3.org/1999/xlink" version="1.1" style="enable-background:new 0 0 477.867 477.867;" xml:space="preserve" width="477.867" height="477.867"><rect id="backgroundrect" width="100%" height="100%" x="0" y="0" fill="none" stroke="none"/>
















<g class="currentLayer" style=""><title>Layer 1</title><g id="svg_1" class="selected" fill-opacity="1" fill="#ffd700">
	<g id="svg_2" fill="#ffd700">
		<path d="M460.8,119.467h-85.333v-102.4C375.467,7.641,367.826,0,358.4,0H17.067C7.641,0,0,7.641,0,17.067V409.6    c0,37.703,30.564,68.267,68.267,68.267H409.6c37.703,0,68.267-30.564,68.267-68.267V136.533    C477.867,127.108,470.226,119.467,460.8,119.467z M136.533,85.333h102.4c9.426,0,17.067,7.641,17.067,17.067    s-7.641,17.067-17.067,17.067h-102.4c-9.426,0-17.067-7.641-17.067-17.067S127.108,85.333,136.533,85.333z M290.133,409.6h-204.8    c-9.426,0-17.067-7.641-17.067-17.067s7.641-17.067,17.067-17.067h204.8c9.426,0,17.067,7.641,17.067,17.067    S299.559,409.6,290.133,409.6z M290.133,341.333h-204.8c-9.426,0-17.067-7.641-17.067-17.067c0-9.426,7.641-17.067,17.067-17.067    h204.8c9.426,0,17.067,7.641,17.067,17.067C307.2,333.692,299.559,341.333,290.133,341.333z M290.133,273.067h-204.8    c-9.426,0-17.067-7.641-17.067-17.067c0-9.426,7.641-17.067,17.067-17.067h204.8c9.426,0,17.067,7.641,17.067,17.067    C307.2,265.426,299.559,273.067,290.133,273.067z M290.133,204.8h-204.8c-9.426,0-17.067-7.641-17.067-17.067    c0-9.426,7.641-17.067,17.067-17.067h204.8c9.426,0,17.067,7.641,17.067,17.067C307.2,197.159,299.559,204.8,290.133,204.8z     M443.733,409.6c0,18.851-15.282,34.133-34.133,34.133s-34.133-15.282-34.133-34.133v-256h68.267V409.6z" id="svg_3" fill="#ffd700"/>
	</g>
</g><g id="svg_4">
</g><g id="svg_5">
</g><g id="svg_6">
</g><g id="svg_7">
</g><g id="svg_8">
</g><g id="svg_9">
</g><g id="svg_10">
</g><g id="svg_11">
</g><g id="svg_12">
</g><g id="svg_13">
</g><g id="svg_14">
</g><g id="svg_15">
</g><g id="svg_16">
</g><g id="svg_17">
</g><g id="svg_18">
</g></g></svg>