<svg xmlns="http://www.w3.org/2000/svg" xmlns:xlink="http://www.w3.org/1999/xlink" version="1.1" style="enable-background:new 0 0 184 184;" xml:space="preserve" width="184" height="184"><rect id="backgroundrect" width="100%" height="100%" x="0" y="0" fill="none" stroke="none"/>
















<g class="currentLayer" style=""><title>Layer 1</title><g id="svg_1" class="selected" fill-opacity="1" fill="#ffffff">
	<path style="" d="M160.746,24.61H23.254C10.432,24.61,0,35.042,0,47.864v88.271c0,12.822,10.432,23.254,23.254,23.254   h137.492c12.822,0,23.254-10.432,23.254-23.254V47.864C184,35.042,173.568,24.61,160.746,24.61z M157.113,39.61L92,89.909   L26.887,39.61H157.113z M160.746,144.39H23.254c-4.551,0-8.254-3.703-8.254-8.254V49.382l72.415,55.94   c1.35,1.043,2.968,1.564,4.585,1.564s3.235-0.521,4.585-1.564L169,49.382v86.753C169,140.687,165.297,144.39,160.746,144.39z" id="svg_2" fill="#ffffff"/>
</g><g id="svg_3">
</g><g id="svg_4">
</g><g id="svg_5">
</g><g id="svg_6">
</g><g id="svg_7">
</g><g id="svg_8">
</g><g id="svg_9">
</g><g id="svg_10">
</g><g id="svg_11">
</g><g id="svg_12">
</g><g id="svg_13">
</g><g id="svg_14">
</g><g id="svg_15">
</g><g id="svg_16">
</g><g id="svg_17">
</g></g></svg>