<svg xmlns="http://www.w3.org/2000/svg" xmlns:xlink="http://www.w3.org/1999/xlink" version="1.1" enable-background="new 0 0 1000 1000" xml:space="preserve" width="1000" height="1000"><rect id="backgroundrect" width="100%" height="100%" x="0" y="0" fill="none" stroke="none"/>
<metadata> Svg Vector Icons : http://www.onlinewebfonts.com/icon </metadata>

<g class="currentLayer" style=""><title>Layer 1</title><g id="svg_1" class="selected" fill-opacity="1" fill="#002d56"><path d="M500,10C230.5,10,10,230.5,10,500s220.5,490,490,490s490-220.5,490-490S769.5,10,500,10L500,10z M512.3,157c186.8,0,186.8,140.9,186.8,220.5s-73.5,226.6-186.8,229.7c-110.3,0-186.8-147-186.8-229.7C325.4,297.9,325.4,157,512.3,157L512.3,157z M500,962.4c-140.9,0-269.5-64.3-355.3-165.4c12.3-30.6,27.6-64.3,49-82.7c45.9-36.8,183.8-98,183.8-98l85.7,165.4l15.3-39.8l-24.5-49l49-49l49,49L530.6,745l12.3,39.8l88.8-162.3c0,0,137.8,61.3,183.8,98c21.4,15.3,36.8,42.9,45.9,67.4C778.7,895.1,647,962.4,500,962.4L500,962.4z" id="svg_2" fill="#002d56"/></g></g></svg>